<svg xmlns="http://www.w3.org/2000/svg" width="2358" height="1562" viewBox="0 0 2358 1562" version="1.1"><path d="M 874.411 260.484 C 871.062 261.213, 865.442 263.262, 861.923 265.039 C 857.973 267.033, 853.021 270.801, 848.985 274.885 C 845.389 278.523, 841.007 284.242, 839.248 287.593 C 837.489 290.944, 835.370 296.569, 834.540 300.093 C 833.709 303.617, 833.030 309.425, 833.030 313 C 833.030 316.575, 833.709 322.383, 834.540 325.907 C 835.370 329.431, 837.500 335.034, 839.271 338.358 C 841.043 341.682, 845.419 347.351, 848.996 350.955 C 852.573 354.559, 858.242 358.957, 861.593 360.729 C 864.944 362.500, 870.569 364.630, 874.093 365.460 C 877.617 366.291, 883.425 366.970, 887 366.970 C 890.575 366.970, 896.383 366.291, 899.907 365.460 C 903.431 364.630, 909.056 362.517, 912.407 360.765 C 915.928 358.924, 921.491 354.581, 925.584 350.478 C 929.749 346.303, 933.791 341.082, 935.393 337.807 C 936.892 334.744, 938.761 329.822, 939.547 326.869 C 940.333 323.916, 940.982 317.657, 940.988 312.960 C 940.995 308.263, 940.310 301.772, 939.467 298.535 C 938.624 295.298, 936.719 290.366, 935.234 287.575 C 933.749 284.784, 929.377 279.336, 925.517 275.470 C 921.438 271.383, 915.891 267.071, 912.270 265.172 C 908.843 263.374, 902.993 261.258, 899.270 260.469 C 895.546 259.680, 889.800 259.063, 886.500 259.097 C 883.200 259.131, 877.760 259.755, 874.411 260.484 M 274 367 L 274 465 315 465 L 356 465 356 408 L 356 351 504.622 351 C 623.375 351, 653.048 351.251, 652.267 352.250 C 651.730 352.938, 562.800 479.582, 454.645 633.683 L 258 913.866 258 954.433 L 258 995 551.500 995 L 845 995 845 1065.500 L 845 1136 890 1136 L 935 1136 935 1065.500 L 935 995 1407.500 995 L 1880 995 1880 1109 L 1880 1223 1836.500 1223 L 1793 1223 1793 1263 L 1793 1303 1923 1303 L 2053 1303 2053 1263 L 2053 1223 2011.500 1223 L 1970 1223 1970 1109 L 1970 995 2034.500 995 L 2099 995 2099 891 L 2099 787 2058.500 787 L 2018 787 2018 850 L 2018 913 1994 913 L 1970 913 1970 701 L 1970 489 2008 489 L 2046 489 2046 449 L 2046 409 1963 409 L 1880 409 1880.004 443.250 L 1880.008 477.500 1865.754 463.455 C 1857.914 455.730, 1846.672 445.803, 1840.770 441.394 C 1834.869 436.985, 1825.637 430.864, 1820.255 427.793 C 1814.873 424.721, 1805.526 420.095, 1799.484 417.513 C 1793.443 414.930, 1783.325 411.327, 1777 409.507 C 1770.675 407.686, 1760.550 405.364, 1754.500 404.348 C 1745.870 402.898, 1738.222 402.502, 1719 402.508 C 1700.062 402.514, 1692.003 402.928, 1683.500 404.332 C 1677.450 405.331, 1668.190 407.228, 1662.922 408.548 C 1657.654 409.868, 1648.699 412.564, 1643.023 414.540 C 1637.347 416.516, 1627.737 420.623, 1621.668 423.666 C 1615.599 426.710, 1607.678 431.039, 1604.067 433.287 C 1600.455 435.534, 1593.450 440.393, 1588.500 444.085 C 1583.550 447.777, 1574.887 455.158, 1569.249 460.488 C 1563.610 465.818, 1555.314 474.751, 1550.811 480.339 C 1546.309 485.928, 1539.976 494.550, 1536.737 499.500 C 1533.499 504.450, 1527.989 514.350, 1524.494 521.500 C 1520.999 528.650, 1516.554 539.096, 1514.616 544.713 C 1512.679 550.330, 1509.753 560.455, 1508.114 567.213 C 1506.475 573.971, 1504.449 584, 1503.611 589.500 C 1502.772 595, 1501.561 606.250, 1500.919 614.500 C 1500.231 623.329, 1500.006 636.493, 1500.370 646.500 C 1500.710 655.850, 1501.656 668.877, 1502.472 675.449 C 1503.288 682.021, 1504.912 692.146, 1506.081 697.949 C 1507.250 703.752, 1509.710 713.474, 1511.547 719.552 C 1513.384 725.631, 1517.215 736.118, 1520.061 742.856 C 1522.907 749.594, 1528.009 759.726, 1531.400 765.372 C 1534.791 771.017, 1539.648 778.556, 1542.195 782.124 C 1544.741 785.693, 1550.668 792.930, 1555.366 798.206 C 1560.064 803.483, 1569.216 812.379, 1575.704 817.976 C 1582.192 823.572, 1593.575 832.237, 1601 837.232 C 1608.425 842.226, 1620.729 849.360, 1628.342 853.085 C 1635.955 856.810, 1647.655 861.642, 1654.342 863.824 C 1661.029 866.005, 1671 868.714, 1676.500 869.844 C 1682 870.973, 1690.313 872.370, 1694.974 872.949 C 1699.634 873.527, 1711.406 874, 1721.132 874 C 1731.443 874, 1743.962 873.338, 1751.158 872.412 C 1757.946 871.538, 1769.377 869.323, 1776.561 867.489 C 1783.744 865.655, 1793.869 862.484, 1799.061 860.441 C 1804.252 858.399, 1812.499 854.729, 1817.386 852.286 C 1822.273 849.843, 1829.923 845.565, 1834.386 842.780 C 1838.849 839.995, 1846.577 834.662, 1851.561 830.930 C 1856.544 827.198, 1864.982 820.018, 1870.311 814.974 L 1880 805.804 1880 859.402 L 1880 913 1407.500 913 L 935 913 935 661 L 935 409 855 409 L 775 409 775 449 L 775 489 810 489 L 845 489 845 701 L 845 913 611.548 913 L 378.095 913 423.492 848.250 C 448.461 812.638, 538.647 684.050, 623.905 562.500 L 778.921 341.500 778.961 305.250 L 779 269 526.500 269 L 274 269 274 367 M 1287 402.695 C 1285.075 402.901, 1279.675 403.743, 1275 404.567 C 1270.325 405.390, 1261.550 407.451, 1255.500 409.147 C 1249.450 410.842, 1239.550 414.161, 1233.500 416.521 C 1227.450 418.881, 1218.675 422.604, 1214 424.795 C 1209.325 426.986, 1200.100 431.795, 1193.500 435.483 C 1186.900 439.170, 1174.975 446.532, 1167 451.843 C 1159.025 457.155, 1152.162 461.650, 1151.750 461.833 C 1151.338 462.017, 1151 450.204, 1151 435.583 L 1151 409 1066.500 409 L 982 409 982 449 L 982 489 1021.500 489 L 1061 489 1061 635.500 L 1061 782 1021.500 782 L 982 782 982 821.500 L 982 861 1105.500 861 L 1229 861 1229 821.500 L 1229 782 1190 782 L 1151 782 1151 661.188 L 1151 540.376 1154.188 538.019 C 1155.941 536.723, 1161.228 532.898, 1165.938 529.519 C 1170.647 526.141, 1179.432 520.292, 1185.460 516.523 C 1191.487 512.753, 1203.187 506.402, 1211.460 502.408 C 1219.732 498.415, 1231.239 493.575, 1237.030 491.652 C 1242.822 489.730, 1252.497 487.200, 1258.530 486.030 C 1265.094 484.758, 1273.918 483.852, 1280.500 483.774 C 1288.415 483.681, 1293.171 484.140, 1297.457 485.411 C 1300.734 486.382, 1305.479 488.223, 1308.002 489.501 C 1310.526 490.780, 1314.894 493.897, 1317.709 496.428 C 1320.524 498.960, 1323.944 502.936, 1325.309 505.265 C 1326.673 507.594, 1328.751 512.425, 1329.927 516 C 1331.103 519.575, 1332.822 526.550, 1333.748 531.500 C 1335.273 539.652, 1335.462 555.607, 1335.748 700.750 L 1336.064 861 1419.032 861 L 1502 861 1502 821.500 L 1502 782 1464 782 L 1426 782 1425.979 671.750 C 1425.968 611.112, 1425.525 551.116, 1424.996 538.425 C 1424.466 525.734, 1423.329 509.984, 1422.470 503.425 C 1421.610 496.866, 1420.067 487.648, 1419.039 482.941 C 1418.012 478.233, 1415.758 470.714, 1414.029 466.232 C 1412.301 461.750, 1408.602 454.577, 1405.809 450.291 C 1403.017 446.006, 1397.080 438.849, 1392.616 434.386 C 1388.152 429.923, 1380.339 423.543, 1375.253 420.209 C 1370.167 416.875, 1362.306 412.721, 1357.784 410.977 C 1353.262 409.233, 1346.333 406.980, 1342.386 405.971 C 1338.440 404.962, 1331.756 403.655, 1327.533 403.068 C 1323.310 402.481, 1313.250 402.072, 1305.178 402.160 C 1297.105 402.248, 1288.925 402.489, 1287 402.695 M 1720.500 481.628 C 1718.300 481.867, 1712.747 482.746, 1708.161 483.580 C 1703.574 484.415, 1695.699 486.478, 1690.661 488.165 C 1685.622 489.852, 1677.900 493.038, 1673.500 495.244 C 1669.100 497.450, 1661.465 502.010, 1656.534 505.377 C 1651.602 508.745, 1643.355 515.524, 1638.206 520.443 C 1633.057 525.361, 1625.938 533.236, 1622.387 537.943 C 1618.835 542.649, 1613.276 551.900, 1610.034 558.500 C 1606.791 565.100, 1602.961 574.416, 1601.523 579.202 C 1600.085 583.988, 1598.001 592.313, 1596.893 597.702 C 1595.440 604.768, 1594.720 613.242, 1594.309 628.088 C 1593.948 641.129, 1594.166 652.293, 1594.903 658.542 C 1595.543 663.969, 1596.756 671.804, 1597.599 675.954 C 1598.442 680.104, 1600.864 688.722, 1602.983 695.105 C 1605.101 701.488, 1608.954 710.931, 1611.545 716.090 C 1614.136 721.249, 1618.525 728.851, 1621.299 732.985 C 1624.072 737.118, 1629.060 743.805, 1632.384 747.845 C 1635.707 751.885, 1641.593 757.926, 1645.463 761.270 C 1649.333 764.614, 1655.425 769.238, 1659 771.546 C 1662.575 773.853, 1667.774 776.887, 1670.553 778.288 C 1673.332 779.688, 1680.307 782.472, 1686.053 784.474 C 1691.799 786.475, 1701.450 788.955, 1707.500 789.983 C 1713.550 791.011, 1723.675 792.156, 1730 792.526 C 1736.631 792.915, 1746.551 792.721, 1753.431 792.069 C 1759.993 791.447, 1769.218 790.096, 1773.931 789.066 C 1778.644 788.036, 1785.425 786.223, 1789 785.036 C 1792.575 783.850, 1799.589 780.907, 1804.586 778.497 C 1809.583 776.087, 1817.233 771.466, 1821.586 768.228 C 1825.939 764.989, 1833.325 758.308, 1838 753.380 C 1842.675 748.451, 1849.510 739.938, 1853.189 734.460 C 1856.868 728.982, 1862.583 718.875, 1865.889 712 C 1869.194 705.125, 1873.265 694.775, 1874.935 689 C 1876.604 683.225, 1878.664 674.450, 1879.512 669.500 C 1880.360 664.550, 1881.324 655.100, 1881.653 648.500 C 1881.983 641.890, 1881.734 630.894, 1881.098 624.019 C 1880.463 617.154, 1879.027 607.029, 1877.907 601.519 C 1876.787 596.008, 1874.458 587.225, 1872.731 582 C 1871.005 576.775, 1867.245 567.876, 1864.377 562.224 C 1861.509 556.573, 1856.538 548.249, 1853.331 543.727 C 1850.124 539.206, 1842.761 530.780, 1836.968 525.003 C 1831.176 519.226, 1822.409 511.654, 1817.486 508.176 C 1812.563 504.697, 1804.927 499.904, 1800.518 497.524 C 1796.108 495.143, 1788.206 491.604, 1782.957 489.659 C 1777.708 487.714, 1768.708 485.162, 1762.957 483.988 C 1756.118 482.593, 1747.655 481.740, 1738.500 481.524 C 1730.800 481.342, 1722.700 481.389, 1720.500 481.628 M 1470.659 1032.054 C 1469.223 1033.183, 1467.535 1035.818, 1466.909 1037.910 C 1465.970 1041.043, 1466.057 1042.318, 1467.401 1045.150 C 1468.298 1047.041, 1470.332 1049.356, 1471.920 1050.294 C 1473.509 1051.232, 1476.089 1051.998, 1477.654 1051.996 C 1479.219 1051.994, 1481.886 1051.147, 1483.580 1050.115 C 1485.274 1049.082, 1487.238 1046.841, 1487.944 1045.135 C 1488.702 1043.305, 1488.963 1040.616, 1488.580 1038.577 C 1488.190 1036.494, 1486.723 1034.103, 1484.889 1032.560 C 1482.660 1030.684, 1480.700 1030, 1477.558 1030 C 1474.747 1030, 1472.371 1030.707, 1470.659 1032.054 M 1074 1039.477 L 1074 1048 1082.500 1048 L 1091 1048 1091 1065.060 L 1091 1082.119 1086.250 1078.114 C 1083.638 1075.911, 1079.468 1073.210, 1076.983 1072.111 C 1074.499 1071.012, 1069.542 1069.646, 1065.967 1069.075 C 1061.482 1068.358, 1057.456 1068.357, 1052.983 1069.071 C 1049.417 1069.639, 1044.250 1071.138, 1041.500 1072.401 C 1038.750 1073.664, 1034.169 1076.551, 1031.320 1078.816 C 1028.471 1081.082, 1024.689 1085.045, 1022.915 1087.624 C 1021.141 1090.202, 1018.851 1094.518, 1017.826 1097.215 C 1016.802 1099.911, 1015.498 1105.466, 1014.929 1109.559 C 1014.217 1114.671, 1014.216 1119.315, 1014.922 1124.397 C 1015.488 1128.466, 1016.934 1134.429, 1018.134 1137.647 C 1019.771 1142.036, 1021.966 1145.146, 1026.909 1150.076 C 1030.920 1154.078, 1035.731 1157.701, 1039.200 1159.331 C 1042.334 1160.805, 1048.288 1162.538, 1052.431 1163.182 C 1058.271 1164.090, 1061.455 1164.078, 1066.610 1163.128 C 1070.267 1162.454, 1075.466 1160.784, 1078.165 1159.416 C 1080.864 1158.049, 1084.856 1155.318, 1087.036 1153.349 L 1091 1149.767 1091 1155.884 L 1091 1162 1108.500 1162 L 1126 1162 1126 1154 L 1126 1146 1118.008 1146 L 1110.016 1146 1109.758 1088.750 L 1109.500 1031.500 1091.750 1031.227 L 1074 1030.954 1074 1039.477 M 1214 1069.085 C 1210.975 1069.591, 1205.189 1071.627, 1201.142 1073.610 C 1196.419 1075.925, 1191.709 1079.291, 1187.990 1083.010 C 1184.430 1086.570, 1181.003 1091.302, 1179.105 1095.281 C 1177.224 1099.222, 1175.594 1104.773, 1174.942 1109.460 C 1174.190 1114.866, 1174.183 1119.171, 1174.917 1123.902 C 1175.492 1127.610, 1176.628 1132.528, 1177.441 1134.832 C 1178.254 1137.137, 1180.269 1140.984, 1181.918 1143.381 C 1183.568 1145.779, 1187.115 1149.716, 1189.800 1152.130 C 1192.485 1154.545, 1197.263 1157.784, 1200.418 1159.328 C 1203.572 1160.873, 1209.156 1162.773, 1212.826 1163.551 C 1216.497 1164.329, 1221.975 1164.965, 1225 1164.965 C 1228.025 1164.965, 1233.650 1164.304, 1237.500 1163.496 C 1241.350 1162.687, 1247.709 1160.447, 1251.632 1158.517 C 1256.740 1156.003, 1260.499 1153.152, 1264.882 1148.467 C 1268.247 1144.870, 1270.994 1141.606, 1270.987 1141.213 C 1270.980 1140.821, 1267.346 1138.975, 1262.911 1137.112 L 1254.849 1133.724 1250.175 1138.312 C 1247.604 1140.836, 1242.876 1144.098, 1239.670 1145.560 C 1235.189 1147.605, 1232.181 1148.239, 1226.670 1148.303 C 1222.247 1148.354, 1217.494 1147.708, 1214.264 1146.617 C 1211.066 1145.537, 1207.358 1143.224, 1204.738 1140.674 C 1202.379 1138.378, 1199.512 1134.475, 1198.368 1132 C 1197.224 1129.525, 1195.989 1126.263, 1195.625 1124.750 L 1194.962 1122 1233.110 1122 L 1271.258 1122 1270.565 1114.966 C 1270.184 1111.098, 1269.176 1105.586, 1268.326 1102.716 C 1267.475 1099.847, 1265.879 1095.733, 1264.779 1093.573 C 1263.679 1091.414, 1260.526 1087.264, 1257.771 1084.352 C 1255.017 1081.440, 1250.566 1077.647, 1247.880 1075.923 C 1245.194 1074.199, 1240.410 1071.989, 1237.248 1071.011 C 1234.087 1070.034, 1228.800 1068.993, 1225.500 1068.700 C 1222.200 1068.406, 1217.025 1068.580, 1214 1069.085 M 1345.233 1071.668 C 1342.887 1072.498, 1338.538 1075.397, 1335.570 1078.110 C 1331.820 1081.537, 1329.690 1084.463, 1328.587 1087.699 C 1327.714 1090.261, 1327.020 1094.414, 1327.044 1096.928 C 1327.068 1099.443, 1327.690 1103.188, 1328.427 1105.252 C 1329.163 1107.316, 1330.950 1110.557, 1332.398 1112.455 C 1334.013 1114.573, 1337.823 1117.275, 1342.265 1119.453 C 1347.091 1121.820, 1353.556 1123.819, 1361.682 1125.459 C 1368.382 1126.810, 1375.392 1128.555, 1377.260 1129.335 C 1379.432 1130.243, 1381.132 1131.905, 1381.979 1133.949 C 1383.108 1136.675, 1383.074 1137.623, 1381.742 1140.415 C 1380.821 1142.347, 1378.712 1144.383, 1376.591 1145.390 C 1374.615 1146.327, 1370.799 1147.355, 1368.110 1147.673 C 1365.421 1147.992, 1360.931 1147.703, 1358.133 1147.032 C 1354.855 1146.245, 1351.588 1144.511, 1348.950 1142.156 C 1345.722 1139.274, 1344.736 1137.600, 1344.296 1134.250 L 1343.737 1130 1335.368 1130 L 1327 1130 1327 1146 L 1327 1162 1335.500 1162 C 1343.362 1162, 1344 1161.848, 1344 1159.980 L 1344 1157.959 1347.852 1159.925 C 1349.971 1161.006, 1354.754 1162.421, 1358.481 1163.070 C 1362.366 1163.747, 1367.996 1163.969, 1371.679 1163.592 C 1375.211 1163.230, 1380.644 1161.983, 1383.750 1160.820 C 1387.042 1159.589, 1391.381 1156.853, 1394.149 1154.264 C 1397.432 1151.193, 1399.416 1148.263, 1400.575 1144.773 C 1401.729 1141.300, 1402.098 1137.811, 1401.759 1133.583 C 1401.488 1130.205, 1400.321 1125.590, 1399.167 1123.328 C 1398.013 1121.066, 1395.201 1117.616, 1392.918 1115.662 C 1390.635 1113.707, 1386.682 1111.398, 1384.133 1110.528 C 1381.585 1109.659, 1373.200 1107.808, 1365.500 1106.415 C 1357.800 1105.021, 1350.150 1103.098, 1348.500 1102.141 C 1346.034 1100.711, 1345.445 1099.655, 1345.193 1096.206 C 1344.940 1092.755, 1345.344 1091.586, 1347.467 1089.618 C 1348.887 1088.302, 1352.037 1086.724, 1354.467 1086.113 C 1356.897 1085.501, 1359.730 1085, 1360.761 1085 C 1361.793 1085, 1364.993 1085.700, 1367.874 1086.555 C 1371.327 1087.581, 1374.454 1089.454, 1377.055 1092.055 C 1379.895 1094.895, 1381 1096.840, 1381 1099 L 1381 1102 1389 1102 L 1397 1102 1397 1086.500 L 1397 1071 1389 1071 C 1382.556 1071, 1381 1071.292, 1381 1072.500 C 1381 1073.325, 1380.872 1074, 1380.715 1074 C 1380.559 1074, 1377.870 1073.100, 1374.740 1072 C 1370.451 1070.492, 1366.643 1070.019, 1359.275 1070.079 C 1353.304 1070.127, 1347.840 1070.746, 1345.233 1071.668 M 1584.214 1071.847 C 1581.307 1072.875, 1576.441 1075.430, 1573.400 1077.524 C 1570.360 1079.618, 1566.296 1083.170, 1564.371 1085.416 C 1562.446 1087.662, 1559.544 1092.277, 1557.922 1095.671 C 1556.130 1099.421, 1554.521 1105.041, 1553.820 1110 C 1552.939 1116.230, 1552.948 1119.971, 1553.857 1125.829 C 1554.512 1130.048, 1556.372 1136.329, 1557.989 1139.788 C 1559.636 1143.309, 1563.363 1148.626, 1566.460 1151.873 C 1569.526 1155.087, 1574.333 1158.807, 1577.245 1160.219 C 1580.135 1161.621, 1584.885 1163.270, 1587.799 1163.884 C 1590.714 1164.498, 1595.232 1165, 1597.839 1165 C 1600.446 1165, 1605.262 1164.302, 1608.540 1163.448 C 1611.818 1162.594, 1616.430 1160.765, 1618.790 1159.383 C 1621.149 1158, 1624.708 1155.439, 1626.699 1153.692 L 1630.318 1150.514 1629.753 1160.758 C 1629.283 1169.289, 1628.765 1171.726, 1626.653 1175.330 C 1625.258 1177.710, 1622.337 1180.835, 1620.161 1182.274 C 1617.986 1183.714, 1613.877 1185.654, 1611.030 1186.585 C 1607.229 1187.828, 1603.949 1188.131, 1598.677 1187.724 C 1594.730 1187.419, 1589.311 1186.225, 1586.635 1185.071 C 1583.959 1183.917, 1580.402 1181.998, 1578.729 1180.807 L 1575.687 1178.641 1569.879 1185.071 C 1566.685 1188.607, 1564.198 1191.950, 1564.354 1192.500 C 1564.509 1193.050, 1567.081 1194.980, 1570.068 1196.788 C 1573.056 1198.596, 1578.650 1201.071, 1582.500 1202.288 C 1588.126 1204.066, 1591.758 1204.485, 1601 1204.424 C 1610.622 1204.360, 1613.660 1203.935, 1619.602 1201.825 C 1623.508 1200.438, 1629.200 1197.646, 1632.251 1195.621 C 1635.432 1193.510, 1639.353 1189.682, 1641.444 1186.646 C 1643.449 1183.735, 1645.807 1179.136, 1646.684 1176.426 C 1648.003 1172.351, 1648.360 1164.290, 1648.752 1129.750 L 1649.226 1088 1657.113 1088 L 1665 1088 1665 1079.500 L 1665 1071 1647.500 1071 L 1630 1071 1630 1077.104 L 1630 1083.207 1626.297 1079.956 C 1624.261 1078.168, 1619.648 1075.309, 1616.047 1073.603 C 1610.282 1070.871, 1608.305 1070.469, 1599.500 1070.238 C 1591.775 1070.036, 1588.297 1070.402, 1584.214 1071.847 M 1765.076 1072.023 C 1762.093 1073.096, 1757.030 1075.535, 1753.826 1077.444 L 1748 1080.915 1748 1075.957 L 1748 1071 1730.500 1071 L 1713 1071 1713 1079.500 L 1713 1088 1721 1088 L 1729 1088 1729 1117 L 1729 1146 1721 1146 L 1713 1146 1713 1154 L 1713 1162 1738 1162 L 1763 1162 1763 1154 L 1763 1146 1755.500 1146 L 1748 1146 1748.002 1121.750 L 1748.004 1097.500 1752.252 1094.859 C 1754.588 1093.407, 1758.492 1091.219, 1760.928 1089.998 C 1763.363 1088.777, 1767.961 1087.542, 1771.146 1087.253 C 1775.491 1086.859, 1777.555 1087.134, 1779.418 1088.355 C 1780.796 1089.257, 1782.365 1091.654, 1782.945 1093.741 C 1783.570 1095.993, 1783.991 1110.429, 1783.994 1129.750 L 1784 1162 1801 1162 L 1818 1162 1818 1154 L 1818 1146 1810.609 1146 L 1803.219 1146 1802.799 1116.750 C 1802.440 1091.760, 1802.125 1086.917, 1800.636 1083.500 C 1799.678 1081.300, 1797.680 1078.206, 1796.197 1076.624 C 1794.714 1075.042, 1791.700 1072.914, 1789.500 1071.896 C 1786.717 1070.607, 1783.218 1070.048, 1778 1070.058 C 1773.115 1070.067, 1768.609 1070.752, 1765.076 1072.023 M 1455 1079.500 L 1455 1088 1462 1088 L 1469 1088 1469 1117 L 1469 1146 1462 1146 L 1455 1146 1455 1154 L 1455 1162 1478.500 1162 L 1502 1162 1502 1154 L 1502 1146 1495 1146 L 1488 1146 1488 1108.500 L 1488 1071 1471.500 1071 L 1455 1071 1455 1079.500 M 1211.493 1086.351 C 1208.739 1087.634, 1204.967 1090.412, 1203.111 1092.526 C 1201.255 1094.640, 1198.906 1098.199, 1197.890 1100.435 C 1196.875 1102.671, 1196.034 1105.287, 1196.022 1106.250 C 1196.002 1107.875, 1197.968 1108, 1223.500 1108 C 1249.027 1108, 1250.999 1107.874, 1250.991 1106.250 C 1250.985 1105.287, 1249.657 1102.191, 1248.038 1099.369 C 1246.419 1096.546, 1243.221 1092.633, 1240.931 1090.673 C 1238.641 1088.712, 1234.714 1086.409, 1232.205 1085.554 C 1229.696 1084.699, 1225.136 1084.004, 1222.072 1084.010 C 1218.351 1084.016, 1214.837 1084.794, 1211.493 1086.351 M 1051.500 1088.290 C 1048.750 1089.608, 1044.762 1092.614, 1042.637 1094.971 C 1040.513 1097.327, 1037.849 1101.335, 1036.718 1103.878 C 1035.240 1107.201, 1034.660 1110.608, 1034.655 1116 C 1034.651 1120.125, 1035.189 1125.394, 1035.851 1127.708 C 1036.513 1130.022, 1038.505 1133.801, 1040.277 1136.106 C 1042.050 1138.410, 1045.861 1141.621, 1048.746 1143.242 C 1052.221 1145.194, 1055.974 1146.369, 1059.858 1146.721 C 1063.932 1147.090, 1067.284 1146.734, 1070.832 1145.556 C 1073.782 1144.576, 1078.017 1141.992, 1080.855 1139.441 C 1083.558 1137.010, 1086.762 1132.910, 1087.976 1130.328 C 1089.292 1127.527, 1090.399 1122.766, 1090.720 1118.518 C 1091.102 1113.462, 1090.775 1109.737, 1089.589 1105.659 C 1088.546 1102.072, 1086.552 1098.403, 1084.274 1095.881 C 1082.268 1093.661, 1078.348 1090.684, 1075.563 1089.266 C 1071.978 1087.440, 1068.457 1086.572, 1063.500 1086.290 C 1057.649 1085.958, 1055.679 1086.286, 1051.500 1088.290 M 1592.860 1088.568 C 1590.175 1089.394, 1586.101 1091.902, 1583.189 1094.520 C 1580.421 1097.008, 1577.112 1101.172, 1575.834 1103.772 C 1573.917 1107.673, 1573.515 1110.073, 1573.535 1117.500 C 1573.554 1124.443, 1574.034 1127.540, 1575.635 1131.051 C 1576.777 1133.554, 1579.196 1137.293, 1581.011 1139.360 C 1582.826 1141.427, 1586.153 1144.098, 1588.405 1145.297 C 1591.688 1147.044, 1594.187 1147.476, 1601 1147.476 C 1607.824 1147.476, 1610.311 1147.045, 1613.613 1145.288 C 1615.874 1144.084, 1619.808 1140.783, 1622.353 1137.953 C 1625.318 1134.655, 1627.523 1130.979, 1628.490 1127.721 C 1629.321 1124.925, 1630 1120.325, 1630 1117.500 C 1630 1114.675, 1629.284 1109.919, 1628.409 1106.932 C 1627.161 1102.672, 1625.566 1100.274, 1621.019 1095.821 C 1616.674 1091.566, 1613.894 1089.749, 1609.929 1088.571 C 1607.018 1087.707, 1603.031 1087.031, 1601.068 1087.070 C 1599.106 1087.108, 1595.412 1087.782, 1592.860 1088.568" stroke="none" fill="#ffffff" fill-rule="evenodd"/></svg>